<?xml version="1.0" encoding="UTF-8"?>
<svg id="Layer_2" data-name="Layer 2" xmlns="http://www.w3.org/2000/svg" viewBox="0 0 129.54 79.79">
  <defs>
    <style>
      .cls-1 {
        fill: #dd8a17;
      }

      .cls-2 {
        fill: #78c2e5;
      }

      .cls-3 {
        fill: #faa021;
      }

      .cls-4 {
        fill: #464a5c;
      }

      .cls-5 {
        fill: #fdfdfd;
      }

      .cls-6 {
        fill: #87dafd;
      }
    </style>
  </defs>
  <g id="released_traces" data-name="released traces">
    <g>
      <path class="cls-4" d="M74.99,15.96c1.7,4.27,1.85,12.56-.75,16.39-5.93-.59-11.79-2-17.18,1.49l-1.55-1.28-.54-14.49,1.35-1.37c6.48-3.41,11.92-2.09,18.67-.75Z"/>
      <g>
        <path class="cls-1" d="M32.43,4.79c.14-.42.43-.69.78-.94,2.29-1.66,16.84,1.68,19.39,3.92,1.89,1.77,3.43,3.44,3.73,8.94.61,4.7.48,11.95.75,17.14.15,2.96-.11,5.98,0,8.94-.3-2.51-5.56-10.74-6.65-10.78.22-4.68,1.53-17.27-1.91-20.54-3.1-2.94-19.61-5.24-23.55-2.21,1.78-1.54,4.94-4.21,7.47-4.47Z"/>
        <path class="cls-3" d="M50.48,32.39c-9.83-11.5-27.56-11.71-39.71-4.5,4.57-6.99,7.43-12.79,14.19-18.63,4.36-3.43,8.8-3.1,13.96-2.39,10.09,1.4,12.54,3.05,13.69,13.22.36,3.19.42,10.45-2.13,12.3Z"/>
        <path class="cls-4" d="M51.1,31.61c1.62,1.9,4.81,4.9,5.97,11.18,9.01,36.13-41.24,51.61-54.41,19.64-6.77-16.44.61-27.58,8.11-34.54s20.72-6.22,29.53-3.5c4.49,1.39,9.18,5.32,10.8,7.22Z"/>
        <path class="cls-4" d="M52.59,7.77c-3.22-1.77-5.3-2.32-7.82-2.82-5.78-.99-10.52-.34-12.34-.16.28-2.1,2.93-3.95,5.36-4.62,6.24-.59,11.83.43,13.67,2.39,1.66,1.77.68,4.1,1.13,5.21Z"/>
        <path class="cls-6" d="M51.43,38.89c6.67,19.23-10.14,39.45-30.32,36.32-10.94-3.52-18.17-13.9-17.67-25.35s8.61-21.17,19.81-23.73c11.2-2.56,22.74,2.66,28.18,12.76Z"/>
        <path class="cls-2" d="M21.11,75.2c21.04-1.02,33.05-15.38,30.32-36.32,4.94,9.16,3.8,20.39-2.87,28.38s-17.54,11.13-27.46,7.94Z"/>
        <path class="cls-5" d="M34.66,29.38c-17.21,3.57-28.18,18.04-20.89,35.37l-1.49.38C-.12,47.78,13.08,24.52,34.66,29.38Z"/>
      </g>
      <g>
        <path class="cls-1" d="M97.11,4.79c-.14-.42-.43-.69-.78-.94-2.29-1.66-16.84,1.68-19.39,3.92-1.89,1.77-3.43,3.44-3.73,8.94-.61,4.7-.48,11.95-.75,17.14-.15,2.96.11,5.98,0,8.94.3-2.51,5.56-10.74,6.65-10.78-.22-4.68-1.53-17.27,1.91-20.54,3.1-2.94,19.61-5.24,23.55-2.21-1.78-1.54-4.94-4.21-7.47-4.47Z"/>
        <path class="cls-3" d="M79.05,32.39c9.83-11.5,27.56-11.71,39.71-4.5-4.57-6.99-7.43-12.79-14.19-18.63-4.36-3.43-8.8-3.1-13.96-2.39-10.09,1.4-12.54,3.05-13.69,13.22-.36,3.19-.42,10.45,2.13,12.3Z"/>
        <path class="cls-4" d="M78.44,31.61c-1.62,1.9-4.81,4.9-5.97,11.18-9.01,36.13,41.24,51.61,54.41,19.64,6.77-16.44-.61-27.58-8.11-34.54s-20.72-6.22-29.53-3.5c-4.49,1.39-9.18,5.32-10.8,7.22Z"/>
        <path class="cls-4" d="M76.95,7.77c3.22-1.77,5.3-2.32,7.82-2.82,5.78-.99,10.52-.34,12.34-.16-.28-2.1-2.93-3.95-5.36-4.62-6.24-.59-11.83.43-13.67,2.39-1.66,1.77-.68,4.1-1.13,5.21Z"/>
        <path class="cls-6" d="M78.11,38.89c-6.67,19.23,10.14,39.45,30.32,36.32,10.94-3.52,18.17-13.9,17.67-25.35s-8.61-21.17-19.81-23.73c-11.2-2.56-22.74,2.66-28.18,12.76Z"/>
        <path class="cls-2" d="M108.43,75.2c-21.04-1.02-33.05-15.38-30.32-36.32-4.94,9.16-3.8,20.39,2.87,28.38,6.67,7.99,17.54,11.13,27.46,7.94Z"/>
        <path class="cls-5" d="M94.87,29.38c17.21,3.57,28.18,18.04,20.89,35.37l1.49.38c12.4-17.36-.79-40.62-22.38-35.75Z"/>
      </g>
    </g>
  </g>
</svg>